<?xml version="1.0" encoding="UTF-8" standalone="no"?>
<!-- Created with Inkscape (http://www.inkscape.org/) -->

<svg
   width="185.94514mm"
   height="119.02462mm"
   viewBox="0 0 185.94514 119.02462"
   version="1.1"
   id="svg5"
   inkscape:version="1.1.2 (b8e25be8, 2022-02-05)"
   sodipodi:docname="THEA-GS logo.v3.svg"
   xmlns:inkscape="http://www.inkscape.org/namespaces/inkscape"
   xmlns:sodipodi="http://sodipodi.sourceforge.net/DTD/sodipodi-0.dtd"
   xmlns="http://www.w3.org/2000/svg"
   xmlns:svg="http://www.w3.org/2000/svg">
  <sodipodi:namedview
     id="namedview7"
     pagecolor="#ffffff"
     bordercolor="#666666"
     borderopacity="1.0"
     inkscape:pageshadow="2"
     inkscape:pageopacity="0.0"
     inkscape:pagecheckerboard="0"
     inkscape:document-units="mm"
     showgrid="false"
     inkscape:snap-global="false"
     fit-margin-top="0"
     fit-margin-left="0"
     fit-margin-right="0"
     fit-margin-bottom="0"
     inkscape:zoom="0.57460017"
     inkscape:cx="484.68486"
     inkscape:cy="281.06501"
     inkscape:window-width="1312"
     inkscape:window-height="1081"
     inkscape:window-x="0"
     inkscape:window-y="25"
     inkscape:window-maximized="0"
     inkscape:current-layer="layer1" />
  <defs
     id="defs2">
    <symbol
       id="v"
       overflow="visible">
      <path
         d="M 13.406,-0.79688 C 12.70678,-0.44141 11.9841,-0.17579 11.2341,0 10.49191,0.1875 9.7107,0.28125 8.8903,0.28125 c -2.4297,0 -4.3516,-0.67578 -5.7656,-2.0312 -1.418,-1.3633 -2.125,-3.207 -2.125,-5.5312 0,-2.3203 0.70703,-4.1602 2.125,-5.5156 1.4141,-1.3633 3.3359,-2.0469 5.7656,-2.0469 0.82031,0 1.6016,0.09375 2.3438,0.28125 0.75,0.17969 1.4727,0.44531 2.1719,0.79688 v 3.0156 c -0.69922,-0.46875 -1.3867,-0.8125 -2.0625,-1.0312 -0.67969,-0.22656 -1.3906,-0.34375 -2.1406,-0.34375 -1.3438,0 -2.4023,0.43359 -3.1719,1.2969 -0.76172,0.85547 -1.1406,2.0391 -1.1406,3.5469 0,1.5117 0.37891,2.6992 1.1406,3.5625 0.76953,0.85547 1.8281,1.2812 3.1719,1.2812 0.75,0 1.4609,-0.10938 2.1406,-0.32812 0.67578,-0.22656 1.3633,-0.57812 2.0625,-1.0469 z"
         id="path564" />
    </symbol>
    <symbol
       id="d"
       overflow="visible">
      <path
         d="M 9.8125,-7.9531 C 9.5,-8.09763 9.19141,-8.2031 8.89062,-8.2656 8.58593,-8.335913 8.28515,-8.37498 7.98437,-8.37498 c -0.90625,0 -1.6055,0.28906 -2.0938,0.85938 -0.48047,0.57422 -0.71875,1.3984 -0.71875,2.4688 V 1e-4 h -3.4844 v -10.938 h 3.4844 v 1.7969 c 0.44531,-0.71875 0.96094,-1.2383 1.5469,-1.5625 0.58203,-0.33203 1.2812,-0.5 2.0938,-0.5 0.125,0 0.25391,0.0078 0.39062,0.01563 0.13281,0.01172 0.33203,0.03125 0.59375,0.0625 z"
         id="path567" />
    </symbol>
    <symbol
       id="c"
       overflow="visible">
      <path
         d="m 12.594,-5.5 v 1 H 4.4221 c 0.082031,0.82422 0.37891,1.4375 0.89062,1.8438 0.50781,0.40625 1.2188,0.60938 2.125,0.60938 0.73828,0 1.4922,-0.10938 2.2656,-0.32812 0.76953,-0.21875 1.5625,-0.54688 2.375,-0.98438 v 2.6875 c -0.82422,0.3125 -1.6523,0.54688 -2.4844,0.70312 -0.82422,0.16406 -1.6484,0.25 -2.4688,0.25 -1.9805,0 -3.5234,-0.5 -4.625,-1.5 -1.0938,-1.0078 -1.6406,-2.4219 -1.6406,-4.2344 0,-1.7891 0.53516,-3.1953 1.6094,-4.2188 1.082,-1.0195 2.5664,-1.5312 4.4531,-1.5312 1.7188,0 3.0938,0.52344 4.125,1.5625 1.0312,1.0312 1.5469,2.4141 1.5469,4.1406 z M 9.0002,-6.6562 c 0,-0.66406 -0.19531,-1.2031 -0.57812,-1.6094 -0.38672,-0.40625 -0.89062,-0.60938 -1.5156,-0.60938 -0.67969,0 -1.2305,0.19531 -1.6562,0.57812 -0.41797,0.375 -0.67969,0.92188 -0.78125,1.6406 z"
         id="path570" />
    </symbol>
    <symbol
       id="f"
       overflow="visible">
      <path
         d="m 6.5781,-4.9219 c -0.73047,0 -1.2773,0.125 -1.6406,0.375 -0.36719,0.24219 -0.54688,0.60547 -0.54688,1.0938 0,0.4375 0.14453,0.78125 0.4375,1.0312 0.30078,0.25 0.71094,0.375 1.2344,0.375 0.65625,0 1.207,-0.23438 1.6562,-0.70312 0.45703,-0.46875 0.6875,-1.0547 0.6875,-1.7656 v -0.40625 z m 5.3438,-1.3125 V 0 H 8.4063 v -1.625 c -0.46875,0.66797 -1,1.1523 -1.5938,1.4531 -0.58594,0.30078 -1.2969,0.45312 -2.1406,0.45312 -1.125,0 -2.043,-0.32812 -2.75,-0.98438 -0.71094,-0.66406 -1.0625,-1.5234 -1.0625,-2.5781 0,-1.2812 0.4375,-2.2188 1.3125,-2.8125 0.88281,-0.60156 2.2734,-0.90625 4.1719,-0.90625 h 2.0625 v -0.28125 c 0,-0.55078 -0.21875,-0.95312 -0.65625,-1.2031 -0.4375,-0.25781 -1.1211,-0.39062 -2.0469,-0.39062 -0.75,0 -1.4492,0.078125 -2.0938,0.23438 -0.64844,0.14844 -1.2461,0.36719 -1.7969,0.65625 v -2.6562 c 0.75,-0.1875 1.5,-0.32812 2.25,-0.42188 0.75781,-0.09375 1.5195,-0.14062 2.2812,-0.14062 1.9688,0 3.3906,0.39062 4.2656,1.1719 0.875,0.77344 1.3125,2.0391 1.3125,3.7969 z"
         id="path573" />
    </symbol>
    <symbol
       id="b"
       overflow="visible">
      <path
         d="m 5.5,-14.047 v 3.1094 h 3.6094 v 2.5 H 5.5 v 4.6406 c 0,0.51172 0.097656,0.85547 0.29688,1.0312 0.20703,0.17969 0.60938,0.26562 1.2031,0.26562 h 1.7969 v 2.5 h -3 c -1.375,0 -2.3555,-0.28516 -2.9375,-0.85938 C 2.28516,-1.44159 2,-2.42206 2,-3.79706 v -4.6406 H 0.2656 v -2.5 H 2 v -3.1094 z"
         id="path576" />
    </symbol>
    <symbol
       id="k"
       overflow="visible">
      <path
         d="m 9.125,-9.3438 v -5.8594 h 3.5156 V -2e-4 H 9.125 V -1.5783 C 8.64453,-0.92986 8.1133,-0.4572 7.5312,-0.1564 6.94526,0.13266 6.2734,0.2811 5.5156,0.2811 c -1.3438,0 -2.4492,-0.53516 -3.3125,-1.6094 -0.86719,-1.0703 -1.2969,-2.4453 -1.2969,-4.125 0,-1.6875 0.42969,-3.0664 1.2969,-4.1406 0.86328,-1.0703 1.9688,-1.6094 3.3125,-1.6094 0.75781,0 1.4297,0.15234 2.0156,0.45312 0.58203,0.30469 1.1133,0.77344 1.5938,1.4062 z M 6.8125,-2.25 c 0.75,0 1.3203,-0.26953 1.7188,-0.8125 0.39453,-0.55078 0.59375,-1.3477 0.59375,-2.3906 0,-1.0391 -0.19922,-1.832 -0.59375,-2.375 -0.39844,-0.55078 -0.96875,-0.82812 -1.7188,-0.82812 -0.74219,0 -1.3086,0.27734 -1.7031,0.82812 -0.39844,0.54297 -0.59375,1.3359 -0.59375,2.375 0,1.043 0.19531,1.8398 0.59375,2.3906 0.39453,0.54297 0.96094,0.8125 1.7031,0.8125 z"
         id="path579" />
    </symbol>
    <symbol
       id="e"
       overflow="visible">
      <path
         d="m 7.5,-2.25 c 0.75,0 1.3203,-0.26953 1.7188,-0.8125 0.39453,-0.55078 0.59375,-1.3477 0.59375,-2.3906 0,-1.0391 -0.19922,-1.832 -0.59375,-2.375 C 8.82036,-8.37888 8.25005,-8.65622 7.5,-8.65622 c -0.75005,0 -1.3281,0.27734 -1.7344,0.82812 -0.39844,0.54297 -0.59375,1.3359 -0.59375,2.375 0,1.0312 0.19531,1.8242 0.59375,2.375 0.40625,0.55469 0.98438,0.82812 1.7344,0.82812 z M 5.1719,-9.3438 c 0.48828,-0.63281 1.0234,-1.1016 1.6094,-1.4062 0.58203,-0.30078 1.2539,-0.45312 2.0156,-0.45312 1.3516,0 2.4609,0.53906 3.3281,1.6094 0.86328,1.0742 1.2969,2.4531 1.2969,4.1406 0,1.6797 -0.43359,3.0547 -1.2969,4.125 -0.86719,1.0742 -1.9766,1.6094 -3.3281,1.6094 -0.76172,0 -1.4336,-0.15234 -2.0156,-0.45312 C 6.19536,-0.47262 5.6602,-0.94137 5.1719,-1.57804 V 6e-5 H 1.6875 v -15.203 h 3.4844 z"
         id="path582" />
    </symbol>
    <symbol
       id="j"
       overflow="visible">
      <path
         d="m 0.25,-10.938 h 3.4844 l 2.9531,7.4219 2.5,-7.4219 h 3.4844 L 8.0781,1.031 c -0.46094,1.2188 -1,2.0664 -1.625,2.5469 C 5.83591,4.06618 5.0312,4.31228 4.0312,4.31228 H 2 v -2.2969 h 1.0938 c 0.59375,0 1.0234,-0.09375 1.2969,-0.28125 0.26953,-0.1875 0.47656,-0.52734 0.625,-1.0156 L 5.12508,0.42165 Z"
         id="path585" />
    </symbol>
    <symbol
       id="i"
       overflow="visible">
      <path
         d="m 5.5938,-11.734 v 8.8906 h 1.3438 c 1.5391,0 2.7188,-0.37891 3.5312,-1.1406 0.8125,-0.75781 1.2188,-1.8672 1.2188,-3.3281 0,-1.4375 -0.40625,-2.5312 -1.2188,-3.2812 -0.80469,-0.75781 -1.9805,-1.1406 -3.5312,-1.1406 z m -3.75,-2.8438 h 3.9531 c 2.2188,0 3.8672,0.15625 4.9531,0.46875 1.082,0.3125 2.0078,0.85156 2.7812,1.6094 0.6875,0.65625 1.1953,1.418 1.5312,2.2812 0.33203,0.85547 0.5,1.8242 0.5,2.9062 0,1.1055 -0.16797,2.0898 -0.5,2.9531 -0.33594,0.86719 -0.84375,1.625 -1.5312,2.2812 -0.78125,0.75 -1.7188,1.2891 -2.8125,1.6094 C 9.6249,-0.15605 7.9843,2e-4 5.7968,2e-4 H 1.8437 Z"
         id="path588" />
    </symbol>
    <symbol
       id="u"
       overflow="visible">
      <path
         d="M 1.6875,-10.938 H 5.1719 V 0 H 1.6875 Z m 0,-4.2656 h 3.4844 v 2.8594 H 1.6875 Z"
         id="path591" />
    </symbol>
    <symbol
       id="h"
       overflow="visible">
      <path
         d="M 12.672,-6.6562 V 0 H 9.1564 v -5.0938 c 0,-0.94531 -0.023438,-1.5977 -0.0625,-1.9531 C 9.050931,-7.41018 8.97671,-7.67581 8.87515,-7.84378 8.73843,-8.07034 8.55093,-8.25003 8.31265,-8.37503 c -0.23047,-0.125 -0.49609,-0.1875 -0.79688,-0.1875 -0.73047,0 -1.3047,0.28125 -1.7188,0.84375 -0.41797,0.5625 -0.625,1.3438 -0.625,2.3438 V 2e-5 h -3.4844 v -10.938 h 3.4844 v 1.5938 c 0.53125,-0.63281 1.0938,-1.1016 1.6875,-1.4062 0.59375,-0.30078 1.2422,-0.45312 1.9531,-0.45312 1.2695,0 2.2266,0.39062 2.875,1.1719 0.65625,0.77344 0.98438,1.8984 0.98438,3.375 z"
         id="path594" />
    </symbol>
    <symbol
       id="a"
       overflow="visible">
      <path
         d="m 6.8906,-8.7031 c -0.78125,0 -1.375,0.28125 -1.7812,0.84375 -0.40625,0.55469 -0.60938,1.3555 -0.60938,2.4062 0,1.043 0.20312,1.8438 0.60938,2.4062 0.40625,0.55469 1,0.82812 1.7812,0.82812 0.75781,0 1.3359,-0.27344 1.7344,-0.82812 0.40625,-0.5625 0.60938,-1.3633 0.60938,-2.4062 0,-1.0508 -0.20312,-1.8516 -0.60938,-2.4062 C 8.22656,-8.42185 7.64844,-8.7031 6.8906,-8.7031 Z m 0,-2.5 c 1.875,0 3.3359,0.51172 4.3906,1.5312 1.0625,1.0117 1.5938,2.418 1.5938,4.2188 0,1.793 -0.53125,3.1992 -1.5938,4.2188 -1.0547,1.0117 -2.5156,1.5156 -4.3906,1.5156 -1.8984,0 -3.375,-0.50391 -4.4375,-1.5156 -1.0625,-1.0195 -1.5938,-2.4258 -1.5938,-4.2188 0,-1.8008 0.53125,-3.207 1.5938,-4.2188 1.0625,-1.0195 2.5391,-1.5312 4.4375,-1.5312 z"
         id="path597" />
    </symbol>
    <symbol
       id="t"
       overflow="visible">
      <path
         d="m 10.219,-10.594 v 2.6562 C 9.47681,-8.2503 8.7581,-8.48468 8.0628,-8.64092 7.36358,-8.79717 6.7034,-8.8753 6.0784,-8.8753 c -0.65625,0 -1.1484,0.085938 -1.4688,0.25 -0.32422,0.16797 -0.48438,0.42188 -0.48438,0.76562 0,0.28125 0.11719,0.49609 0.35938,0.64062 0.25,0.14844 0.6875,0.25781 1.3125,0.32812 l 0.625,0.09375 c 1.7891,0.23047 2.9922,0.60547 3.6094,1.125 0.61328,0.52344 0.92188,1.3398 0.92188,2.4531 0,1.168 -0.43359,2.043 -1.2969,2.625 -0.85547,0.58594 -2.1328,0.875 -3.8281,0.875 -0.73047,0 -1.4805,-0.058594 -2.25,-0.17188 -0.77344,-0.11328 -1.5625,-0.28516 -2.375,-0.51562 v -2.6562 c 0.69531,0.34375 1.4102,0.60156 2.1406,0.76562 0.72656,0.16797 1.4727,0.25 2.2344,0.25 0.6875,0 1.2031,-0.09375 1.5469,-0.28125 0.3438,-0.1875 0.51562,-0.46875 0.51562,-0.84375 0,-0.3125 -0.12109,-0.53906 -0.35938,-0.6875 C 7.03933,-4.01592 6.56668,-4.13311 5.85962,-4.21905 L 5.25024,-4.297175 c -1.5625,-0.19531 -2.6562,-0.55469 -3.2812,-1.0781 -0.625,-0.53125 -0.9375,-1.332 -0.9375,-2.4062 0,-1.1562 0.39453,-2.0156 1.1875,-2.5781 0.80078,-0.5625 2.0195,-0.84375 3.6562,-0.84375 0.64453,0 1.3203,0.05469 2.0312,0.15625 0.70703,0.09375 1.4766,0.24609 2.3125,0.45312 z"
         id="path600" />
    </symbol>
    <symbol
       id="g"
       overflow="visible">
      <path
         d="m 8.875,-15.203 v 2.2969 H 6.9375 c -0.49219,0 -0.83594,0.09375 -1.0312,0.28125 -0.19922,0.17969 -0.29688,0.48438 -0.29688,0.92188 v 0.76562 h 3 v 2.5 h -3 v 8.4375 h -3.4844 v -8.4375 h -1.75 v -2.5 h 1.75 v -0.76562 c 0,-1.1875 0.32812,-2.0664 0.98438,-2.6406 0.66406,-0.57031 1.6953,-0.85938 3.0938,-0.85938 z"
         id="path603" />
    </symbol>
    <symbol
       id="s"
       overflow="visible">
      <path
         d="m 1.8438,-14.578 h 3.75 v 11.734 h 6.6094 V -2e-4 H 1.8442 Z"
         id="path606" />
    </symbol>
    <symbol
       id="r"
       overflow="visible">
      <path
         d="m 11.812,-9.125 c 0.44531,-0.67578 0.97266,-1.1914 1.5781,-1.5469 0.61328,-0.35156 1.2852,-0.53125 2.0156,-0.53125 1.25,0 2.2031,0.39062 2.8594,1.1719 0.66406,0.77344 1,1.8984 1,3.375 V -5e-5 h -3.5156 v -5.7031 -0.26562 c 0.0078,-0.09375 0.01563,-0.22266 0.01563,-0.39062 0,-0.76953 -0.11719,-1.3281 -0.34375,-1.6719 -0.23047,-0.35156 -0.60156,-0.53125 -1.1094,-0.53125 -0.65625,0 -1.168,0.27734 -1.5312,0.82812 -0.36719,0.54297 -0.55469,1.3281 -0.5625,2.3594 v 5.375 h -3.5156 v -5.7031 c 0,-1.207 -0.10547,-1.9844 -0.3125,-2.3281 -0.21094,-0.35156 -0.57812,-0.53125 -1.1094,-0.53125 -0.67969,0 -1.1992,0.27734 -1.5625,0.82812 -0.36719,0.54297 -0.54688,1.3281 -0.54688,2.3594 V 5e-5 H 1.6558 v -10.938 h 3.5156 v 1.5938 c 0.4375,-0.61328 0.92969,-1.0781 1.4844,-1.3906 0.55078,-0.3125 1.1641,-0.46875 1.8438,-0.46875 0.75,0 1.4141,0.18359 2,0.54688 0.58203,0.36719 1.0195,0.875 1.3125,1.5312 z"
         id="path609" />
    </symbol>
    <symbol
       id="q"
       overflow="visible">
      <path
         d="M 12.672,-6.6562 V 0 H 9.1564 v -5.0781 c 0,-0.95703 -0.023438,-1.6133 -0.0625,-1.9688 C 9.050931,-7.41018 8.97671,-7.67581 8.87515,-7.84378 8.73843,-8.07034 8.55093,-8.25003 8.31265,-8.37503 c -0.23047,-0.125 -0.49609,-0.1875 -0.79688,-0.1875 -0.73047,0 -1.3047,0.28125 -1.7188,0.84375 -0.41797,0.5625 -0.625,1.3438 -0.625,2.3438 V 2e-5 h -3.4844 v -15.203 h 3.4844 v 5.8594 c 0.53125,-0.63281 1.0938,-1.1016 1.6875,-1.4062 0.59375,-0.30078 1.2422,-0.45312 1.9531,-0.45312 1.2695,0 2.2266,0.39062 2.875,1.1719 0.65625,0.77344 0.98438,1.8984 0.98438,3.375 z"
         id="path612" />
    </symbol>
    <symbol
       id="p"
       overflow="visible">
      <path
         d="m 1.8438,-14.578 h 4.1875 l 5.3125,10 v -10 h 3.5625 V 0 H 10.7032 L 5.4063,-10 V 0 H 1.8438 Z"
         id="path615" />
    </symbol>
    <symbol
       id="o"
       overflow="visible">
      <path
         d="m 1.5625,-4.2656 v -6.6719 h 3.5156 v 1.0938 c 0,0.59375 -0.00781,1.3398 -0.015625,2.2344 v 1.7812 c 0,0.88672 0.019531,1.5234 0.0625,1.9062 0.050781,0.38672 0.12891,0.66797 0.23438,0.84375 0.14453,0.23047 0.33203,0.40625 0.5625,0.53125 0.22656,0.125 0.49219,0.1875 0.79688,0.1875 0.72656,0 1.3008,-0.28125 1.7188,-0.84375 0.41406,-0.5625 0.625,-1.3359 0.625,-2.3281 v -5.4062 h 3.5 v 10.938 h -3.5 v -1.5781 c -0.53125,0.63672 -1.0938,1.1055 -1.6875,1.4062 -0.58594,0.30078 -1.2305,0.45312 -1.9375,0.45312 -1.2617,0 -2.2266,-0.38281 -2.8906,-1.1562 -0.65625,-0.78125 -0.98438,-1.9102 -0.98438,-3.3906 z"
         id="path618" />
    </symbol>
    <symbol
       id="n"
       overflow="visible">
      <path
         d="m 1.8438,-14.578 h 6.2344 c 1.8516,0 3.2734,0.41406 4.2656,1.2344 1,0.82422 1.5,1.9961 1.5,3.5156 0,1.5312 -0.5,2.7109 -1.5,3.5312 -0.99219,0.82422 -2.4141,1.2344 -4.2656,1.2344 H 5.5938 V 1e-4 h -3.75 z m 3.75,2.7188 v 4.0781 h 2.0781 c 0.72656,0 1.2891,-0.17578 1.6875,-0.53125 0.40625,-0.35156 0.60938,-0.85938 0.60938,-1.5156 0,-0.64453 -0.20312,-1.1445 -0.60938,-1.5 -0.39844,-0.35156 -0.96094,-0.53125 -1.6875,-0.53125 z"
         id="path621" />
    </symbol>
    <symbol
       id="m"
       overflow="visible">
      <path
         d="m 1.6875,-10.938 h 3.4844 v 10.734 c 0,1.4688 -0.35547,2.5859 -1.0625,3.3594 C 3.41018,3.92493 2.3946,4.3116 1.0625,4.3116 H -0.6719 V 2.0147 h 0.60938 c 0.66406,0 1.125,-0.15234 1.375,-0.45312 0.25,-0.29297 0.375,-0.88281 0.375,-1.7656 z m 0,-4.2656 h 3.4844 v 2.8594 H 1.6875 Z"
         id="path624" />
    </symbol>
    <symbol
       id="l"
       overflow="visible">
      <path
         d="m 10.516,-10.594 v 2.8438 C 10.04725,-8.07051 9.57069,-8.3127 9.0941,-8.46895 8.61363,-8.6252 8.11363,-8.70333 7.5941,-8.70333 c -0.96875,0 -1.7305,0.28906 -2.2812,0.85938 -0.54297,0.5625 -0.8125,1.3594 -0.8125,2.3906 0,1.0234 0.26953,1.8203 0.8125,2.3906 0.55078,0.5625 1.3125,0.84375 2.2812,0.84375 0.55078,0 1.0703,-0.078125 1.5625,-0.23438 0.48828,-0.16406 0.94141,-0.41016 1.3594,-0.73438 v 2.8594 C 9.97303,-0.11742 9.4222,0.03102 8.8598,0.12476 8.2973,0.22632 7.727,0.28101 7.1567,0.28101 c -1.9688,0 -3.5117,-0.50391 -4.625,-1.5156 -1.1172,-1.0078 -1.6719,-2.4141 -1.6719,-4.2188 0,-1.8125 0.55469,-3.2227 1.6719,-4.2344 1.1133,-1.0078 2.6562,-1.5156 4.625,-1.5156 0.57031,0 1.1328,0.05469 1.6875,0.15625 0.5625,0.09375 1.1172,0.24609 1.6719,0.45312 z"
         id="path627" />
    </symbol>
    <symbol
       id="t-8"
       overflow="visible">
      <path
         d="M 19.547,-1.1719 C 18.5353,-0.64846 17.4845,-0.25784 16.3908,0 15.297,0.26953 14.1564,0.40625 12.9689,0.40625 c -3.543,0 -6.3516,-0.98828 -8.4219,-2.9688 -2.0625,-1.9766 -3.0938,-4.6602 -3.0938,-8.0469 0,-3.4062 1.0312,-6.0977 3.0938,-8.0781 2.0703,-1.9766 4.8789,-2.9688 8.4219,-2.9688 1.1875,0 2.3281,0.13672 3.4219,0.40625 1.0938,0.26172 2.1445,0.65625 3.1562,1.1875 v 4.3906 c -1.0234,-0.6875 -2.0273,-1.1914 -3.0156,-1.5156 -0.98047,-0.32031 -2.0156,-0.48438 -3.1094,-0.48438 -1.9609,0 -3.5,0.625 -4.625,1.875 -1.1172,1.25 -1.6719,2.9805 -1.6719,5.1875 0,2.1875 0.55469,3.9141 1.6719,5.1719 1.125,1.25 2.6641,1.875 4.625,1.875 1.0938,0 2.1289,-0.16016 3.1094,-0.48438 0.98828,-0.32031 1.9922,-0.82812 3.0156,-1.5156 z"
         id="path1952" />
    </symbol>
    <symbol
       id="c-0"
       overflow="visible">
      <path
         d="m 14.297,-11.609 c -0.44922,-0.20703 -0.89062,-0.35938 -1.3281,-0.45312 -0.4375,-0.10156 -0.88281,-0.15625 -1.3281,-0.15625 -1.3125,0 -2.3242,0.42188 -3.0312,1.2656 -0.71094,0.83594 -1.0625,2.0391 -1.0625,3.6094 V 4.3e-4 H 2.4533 v -15.953 h 5.0938 v 2.625 c 0.65625,-1.0508 1.4062,-1.8164 2.25,-2.2969 0.85156,-0.47656 1.875,-0.71875 3.0625,-0.71875 0.17578,0 0.36328,0.01172 0.5625,0.03125 0.19531,0.01172 0.48438,0.04297 0.85938,0.09375 z"
         id="path1955" />
    </symbol>
    <symbol
       id="b-2"
       overflow="visible">
      <path
         d="m 18.375,-8.0156 v 1.4531 H 6.453 c 0.125,1.1992 0.55469,2.0938 1.2969,2.6875 0.73828,0.59375 1.7734,0.89062 3.1094,0.89062 1.0703,0 2.1719,-0.15625 3.2969,-0.46875 1.125,-0.32031 2.2812,-0.80469 3.4688,-1.4531 v 3.9375 c -1.2109,0.46094 -2.418,0.80469 -3.625,1.0312 -1.2109,0.22656 -2.4141,0.34375 -3.6094,0.34375 -2.8984,0 -5.1484,-0.72656 -6.75,-2.1875 -1.5938,-1.4688 -2.3906,-3.5312 -2.3906,-6.1875 0,-2.5938 0.78516,-4.6328 2.3594,-6.125 1.5703,-1.5 3.7344,-2.25 6.4844,-2.25 2.5078,0 4.5156,0.75781 6.0156,2.2656 1.5078,1.5117 2.2656,3.5312 2.2656,6.0625 z m -5.2344,-1.7031 c 0,-0.96875 -0.28906,-1.75 -0.85938,-2.3438 -0.5625,-0.59375 -1.2969,-0.89062 -2.2031,-0.89062 -0.99219,0 -1.7969,0.28125 -2.4219,0.84375 -0.61719,0.55469 -0.99609,1.3516 -1.1406,2.3906 z"
         id="path1958" />
    </symbol>
    <symbol
       id="m-4"
       overflow="visible">
      <path
         d="m 9.5938,-7.1719 c -1.0625,0 -1.8672,0.18359 -2.4062,0.54688 -0.53125,0.35547 -0.79688,0.88281 -0.79688,1.5781 0,0.64844 0.21094,1.1523 0.64062,1.5156 0.4375,0.36719 1.0391,0.54688 1.8125,0.54688 0.95703,0 1.7656,-0.34375 2.4219,-1.0312 0.6563,-0.68745 0.98438,-1.5469 0.98438,-2.5781 v -0.57812 z m 7.7969,-1.9375 V 0 H 12.2501 V -2.3594 C 11.5626,-1.39065 10.7892,-0.6875 9.9376,-0.25 9.08213,0.1875 8.047,0.40625 6.8282,0.40625 c -1.6562,0 -3,-0.47656 -4.0312,-1.4375 C 1.7658,-2 1.2501,-3.25005 1.2501,-4.78125 c 0,-1.875 0.64062,-3.25 1.9219,-4.125 1.2891,-0.875 3.3164,-1.3125 6.0781,-1.3125 h 3 v -0.39062 c 0,-0.8125 -0.32031,-1.4062 -0.95312,-1.7812 -0.63672,-0.375 -1.6328,-0.5625 -2.9844,-0.5625 -1.0859,0 -2.1016,0.10938 -3.0469,0.32812 -0.9375,0.21875 -1.8086,0.54688 -2.6094,0.98438 v -3.8906 c 1.082,-0.25781 2.1758,-0.45703 3.2812,-0.59375 1.1016,-0.14453 2.207,-0.21875 3.3125,-0.21875 2.875,0 4.9453,0.57031 6.2188,1.7031 1.2812,1.1367 1.9219,2.9805 1.9219,5.5312 z"
         id="path1961" />
    </symbol>
    <symbol
       id="d-8"
       overflow="visible">
      <path
         d="m 8.0156,-20.484 v 4.5312 h 5.2656 v 3.6406 H 8.0156 v 6.7656 c 0,0.74219 0.14453,1.2461 0.4375,1.5156 0.30078,0.26172 0.89062,0.39062 1.7656,0.39062 h 2.6094 V 2.2e-4 H 8.4687 c -2.0234,0 -3.4531,-0.41406 -4.2969,-1.25 -0.83594,-0.84375 -1.25,-2.2734 -1.25,-4.2969 v -6.7656 H 0.3906 v -3.6406 h 2.5312 v -4.5312 z"
         id="path1964" />
    </symbol>
    <symbol
       id="l-3"
       overflow="visible">
      <path
         d="m 13.297,-13.625 v -8.5312 h 5.1406 V -2e-4 H 13.297 v -2.3125 c -0.69922,0.94922 -1.4688,1.6406 -2.3125,2.0781 -0.84375,0.42578 -1.8242,0.64062 -2.9375,0.64062 -1.9688,0 -3.5859,-0.77344 -4.8438,-2.3281 -1.2617,-1.5625 -1.8906,-3.5781 -1.8906,-6.0469 0,-2.457 0.62891,-4.4688 1.8906,-6.0312 1.2578,-1.5625 2.875,-2.3438 4.8438,-2.3438 1.1016,0 2.0781,0.22656 2.9219,0.67188 0.85156,0.4375 1.6289,1.1211 2.3281,2.0469 z M 9.9376,-3.297 c 1.0938,0 1.9258,-0.39453 2.5,-1.1875 0.57031,-0.80078 0.85938,-1.9609 0.85938,-3.4844 0,-1.5078 -0.28906,-2.6641 -0.85938,-3.4688 -0.57422,-0.80078 -1.4062,-1.2031 -2.5,-1.2031 -1.0859,0 -1.9141,0.40234 -2.4844,1.2031 -0.57422,0.80469 -0.85938,1.9609 -0.85938,3.4688 0,1.5234 0.28516,2.6836 0.85938,3.4844 0.57031,0.79297 1.3984,1.1875 2.4844,1.1875 z"
         id="path1967" />
    </symbol>
    <symbol
       id="k-9"
       overflow="visible">
      <path
         d="m 10.938,-3.2969 c 1.0938,0 1.9258,-0.39453 2.5,-1.1875 0.57031,-0.80078 0.85938,-1.9609 0.85938,-3.4844 0,-1.5078 -0.28906,-2.6641 -0.85938,-3.4688 -0.57422,-0.80078 -1.4062,-1.2031 -2.5,-1.2031 -1.0938,0 -1.9336,0.40234 -2.5156,1.2031 -0.58594,0.80469 -0.875,1.9609 -0.875,3.4688 0,1.5117 0.28906,2.668 0.875,3.4688 0.58203,0.80469 1.4219,1.2031 2.5156,1.2031 z m -3.3906,-10.328 c 0.70703,-0.92578 1.4883,-1.6094 2.3438,-2.0469 0.85156,-0.44531 1.832,-0.67188 2.9375,-0.67188 1.9688,0 3.582,0.78125 4.8438,2.3438 1.2695,1.5625 1.9062,3.5742 1.9062,6.0312 0,2.4688 -0.63672,4.4844 -1.9062,6.0469 -1.2617,1.5547 -2.875,2.3281 -4.8438,2.3281 -1.1055,0 -2.0859,-0.21875 -2.9375,-0.65625 -0.85547,-0.4375 -1.6367,-1.125 -2.3438,-2.0625 V 7e-5 H 2.4536 v -22.156 h 5.0938 z"
         id="path1970" />
    </symbol>
    <symbol
       id="j-0"
       overflow="visible">
      <path
         d="m 0.35938,-15.953 h 5.0938 l 4.2969,10.828 3.6406,-10.828 h 5.0938 L 11.78138,1.516 C 11.10169,3.2855 10.31658,4.5238 9.42198,5.2348 8.52354,5.94183 7.34388,6.2973 5.87508,6.2973 H 2.92198 V 2.9535 h 1.5938 c 0.86328,0 1.4922,-0.14062 1.8906,-0.42188 C 6.80091,2.25818 7.1095,1.766 7.32826,1.04722 l 0.14062,-0.4375 z"
         id="path1973" />
    </symbol>
    <symbol
       id="i-5"
       overflow="visible">
      <path
         d="m 2.6719,-21.266 h 14.812 v 4.1406 H 8.1558 v 3.9688 h 8.7656 V -9.016 H 8.1558 v 4.875 h 9.6406 V -4e-4 H 2.6714 Z"
         id="path1976" />
    </symbol>
    <symbol
       id="s-2"
       overflow="visible">
      <path
         d="m 2.4531,-22.156 h 5.0938 v 12.062 l 5.875,-5.8594 h 5.9219 l -7.7969,7.3281 8.4062,8.625 H 13.7812 L 7.5468,-6.6565 V -3e-4 H 2.453 Z"
         id="path1979" />
    </symbol>
    <symbol
       id="a-2"
       overflow="visible">
      <path
         d="m 10.047,-12.688 c -1.1367,0 -2,0.40625 -2.5938,1.2188 -0.5938,0.81255 -0.89062,1.9805 -0.89062,3.5 0,1.5312 0.29688,2.7031 0.89062,3.5156 0.59374,0.8125 1.457,1.2188 2.5938,1.2188 1.1016,0 1.9453,-0.40625 2.5312,-1.2188 0.59375,-0.8125 0.89062,-1.9844 0.89062,-3.5156 0,-1.5195 -0.29688,-2.6875 -0.89062,-3.5 -0.58594,-0.8125 -1.4297,-1.2188 -2.5312,-1.2188 z m 0,-3.6562 c 2.7383,0 4.8789,0.74609 6.4219,2.2344 1.5391,1.4805 2.3125,3.5273 2.3125,6.1406 0,2.625 -0.77344,4.6797 -2.3125,6.1562 -1.543,1.4805 -3.6836,2.2188 -6.4219,2.2188 -2.7617,0 -4.918,-0.73828 -6.4688,-2.2188 -1.5547,-1.4766 -2.3281,-3.5312 -2.3281,-6.1562 0,-2.6133 0.77344,-4.6602 2.3281,-6.1406 1.5508,-1.4883 3.707,-2.2344 6.4688,-2.2344 z"
         id="path1982" />
    </symbol>
    <symbol
       id="h-7"
       overflow="visible">
      <path
         d="m 2.6719,-21.266 h 9.1094 c 2.707,0 4.7852,0.60547 6.2344,1.8125 1.4453,1.1992 2.1719,2.9062 2.1719,5.125 0,2.2305 -0.72656,3.9492 -2.1719,5.1562 -1.4492,1.1992 -3.5273,1.7969 -6.2344,1.7969 H 8.1563 V -4e-4 H 2.6719 Z m 5.4844,3.9688 v 5.9375 h 3.0469 c 1.0625,0 1.8789,-0.25391 2.4531,-0.76562 0.58203,-0.51953 0.875,-1.2539 0.875,-2.2031 0,-0.94531 -0.29297,-1.6758 -0.875,-2.1875 -0.57422,-0.51953 -1.3906,-0.78125 -2.4531,-0.78125 z"
         id="path1985" />
    </symbol>
    <symbol
       id="g-3"
       overflow="visible">
      <path
         d="m 2.2812,-6.2031 v -9.75 h 5.125 v 1.5938 c 0,0.86719 -0.00781,1.9531 -0.015625,3.2656 -0.011719,1.3047 -0.015625,2.1719 -0.015625,2.6094 0,1.2812 0.03125,2.2031 0.09375,2.7656 0.070312,0.5625 0.1875,0.97656 0.34375,1.2344 0.21875,0.33594 0.49219,0.58984 0.82812,0.76562 0.33203,0.17969 0.71875,0.26562 1.1562,0.26562 1.0625,0 1.8945,-0.40625 2.5,-1.2188 0.61328,-0.8125 0.92188,-1.9453 0.92188,-3.4062 v -7.875 h 5.0938 V -6e-5 h -5.0938 v -2.3125 c -0.77344,0.9375 -1.5898,1.625 -2.4531,2.0625 -0.85547,0.4375 -1.7969,0.65625 -2.8281,0.65625 -1.8438,0 -3.25,-0.5625 -4.2188,-1.6875 -0.96094,-1.1328 -1.4375,-2.7734 -1.4375,-4.9219 z"
         id="path1988" />
    </symbol>
    <symbol
       id="f-7"
       overflow="visible">
      <path
         d="M 18.484,-9.7188 V 0 h -5.125 v -7.4375 c 0,-1.375 -0.03125,-2.3203 -0.09375,-2.8438 -0.0625,-0.51953 -0.16797,-0.90625 -0.3125,-1.1562 -0.19922,-0.33203 -0.46875,-0.58594 -0.8125,-0.76562 -0.34375,-0.1875 -0.73438,-0.28125 -1.1719,-0.28125 -1.0625,0 -1.9023,0.41406 -2.5156,1.2344 -0.60547,0.8125 -0.90625,1.9492 -0.90625,3.4062 V 3e-5 H 2.4527 v -15.953 h 5.0938 v 2.3281 c 0.76953,-0.92578 1.5859,-1.6094 2.4531,-2.0469 0.86328,-0.44531 1.8164,-0.67188 2.8594,-0.67188 1.8438,0 3.2383,0.57031 4.1875,1.7031 0.95703,1.125 1.4375,2.7656 1.4375,4.9219 z"
         id="path1991" />
    </symbol>
    <symbol
       id="e-9"
       overflow="visible">
      <path
         d="m 17.234,-13.297 c 0.64453,-0.98828 1.4102,-1.7422 2.2969,-2.2656 0.89453,-0.51953 1.875,-0.78125 2.9375,-0.78125 1.832,0 3.2266,0.57031 4.1875,1.7031 0.95703,1.125 1.4375,2.7656 1.4375,4.9219 V -5e-5 h -5.125 v -8.3125 -0.39062 c 0.0078,-0.13281 0.01563,-0.32031 0.01563,-0.5625 0,-1.1328 -0.16797,-1.9531 -0.5,-2.4531 -0.32422,-0.50781 -0.85938,-0.76562 -1.6094,-0.76562 -0.96875,0 -1.7188,0.40234 -2.25,1.2031 -0.52344,0.79297 -0.79297,1.9453 -0.8125,3.4531 V -9e-5 h -5.125 v -8.3125 c 0,-1.7695 -0.15234,-2.9062 -0.45312,-3.4062 -0.30469,-0.50781 -0.84375,-0.76562 -1.625,-0.76562 -0.98047,0 -1.7344,0.40234 -2.2656,1.2031 -0.53125,0.80469 -0.79688,1.9492 -0.79688,3.4375 V -1e-5 h -5.125 v -15.953 h 5.125 v 2.3281 c 0.625,-0.89453 1.3438,-1.5703 2.1562,-2.0312 0.8125,-0.45703 1.707,-0.6875 2.6875,-0.6875 1.1016,0 2.0781,0.26562 2.9219,0.79688 0.8438,0.53126 1.4844,1.2812 1.9219,2.25 z"
         id="path1994" />
    </symbol>
    <symbol
       id="r-0"
       overflow="visible">
      <path
         d="m 12.953,-22.156 v 3.3438 h -2.8281 c -0.71875,0 -1.2266,0.13281 -1.5156,0.39062 -0.28125,0.26172 -0.42188,0.71484 -0.42188,1.3594 v 1.1094 h 4.3594 v 3.6406 h -4.3594 v 12.312 h -5.0938 v -12.312 h -2.5312 v -3.6406 h 2.5312 v -1.1094 c 0,-1.7383 0.48438,-3.0195 1.4531,-3.8438 0.96875,-0.83203 2.4688,-1.25 4.5,-1.25 z"
         id="path1997" />
    </symbol>
    <symbol
       id="q-2"
       overflow="visible">
      <path
         d="M 18.484,-9.7188 V 0 h -5.125 v -7.4062 c 0,-1.3945 -0.03125,-2.3516 -0.09375,-2.875 -0.0625,-0.51953 -0.16797,-0.90625 -0.3125,-1.1562 -0.19922,-0.33203 -0.46875,-0.58594 -0.8125,-0.76562 -0.34375,-0.1875 -0.73438,-0.28125 -1.1719,-0.28125 -1.0625,0 -1.9023,0.41406 -2.5156,1.2344 -0.60547,0.8125 -0.90625,1.9492 -0.90625,3.4062 V 1.3e-4 H 2.4527 v -22.156 h 5.0938 v 8.5312 c 0.76953,-0.92578 1.5859,-1.6094 2.4531,-2.0469 0.86328,-0.44531 1.8164,-0.67188 2.8594,-0.67188 1.8438,0 3.2383,0.57031 4.1875,1.7031 0.95703,1.125 1.4375,2.7656 1.4375,4.9219 z"
         id="path2000" />
    </symbol>
    <symbol
       id="p-3"
       overflow="visible">
      <path
         d="m 2.6719,-21.266 h 6.125 l 7.7344,14.578 v -14.578 h 5.2031 V 0 h -6.125 L 7.875,-14.594 V 0 H 2.6719 Z"
         id="path2003" />
    </symbol>
    <symbol
       id="o-9"
       overflow="visible">
      <path
         d="M 2.4531,-15.953 H 7.5469 V -0.281 C 7.5469,1.8518 7.03128,3.4846 6,4.6096 4.9766,5.7346 3.4922,6.2971 1.5469,6.2971 H -0.9687 V 2.9533 h 0.89062 c 0.96875,0 1.6289,-0.21875 1.9844,-0.65625 0.36328,-0.4375 0.54688,-1.2969 0.54688,-2.5781 z m 0,-6.2031 h 5.0938 v 4.1562 H 2.4531 Z"
         id="path2006" />
    </symbol>
    <symbol
       id="n-9"
       overflow="visible">
      <path
         d="m 15.344,-15.453 v 4.1562 c -0.69922,-0.46875 -1.3984,-0.81641 -2.0938,-1.0469 -0.69922,-0.22656 -1.4219,-0.34375 -2.1719,-0.34375 -1.4297,0 -2.5391,0.41797 -3.3281,1.25 -0.79297,0.82422 -1.1875,1.9805 -1.1875,3.4688 0,1.5 0.39453,2.668 1.1875,3.5 0.78906,0.82422 1.8984,1.2344 3.3281,1.2344 0.80078,0 1.5547,-0.11719 2.2656,-0.35938 0.71875,-0.23828 1.3828,-0.58594 2,-1.0469 v 4.1719 c -0.80469,0.29297 -1.6172,0.50781 -2.4375,0.65625 -0.8125,0.14453 -1.6367,0.21875 -2.4688,0.21875 -2.875,0 -5.125,-0.73438 -6.75,-2.2031 -1.625,-1.4766 -2.4375,-3.5352 -2.4375,-6.1719 0,-2.625 0.8125,-4.6758 2.4375,-6.1562 1.625,-1.4766 3.875,-2.2188 6.75,-2.2188 0.83203,0 1.6562,0.07813 2.4688,0.23438 0.8125,0.14844 1.625,0.36719 2.4375,0.65625 z"
         id="path2009" />
    </symbol>
    <symbol
       id="o-8"
       overflow="visible">
      <path
         d="m 34.109,-2.0312 c -1.7617,0.90625 -3.5938,1.5898 -5.5,2.0469 -1.9062,0.46875 -3.8984,0.70312 -5.9688,0.70312 -6.1797,0 -11.074,-1.7227 -14.688,-5.1719 -3.6172,-3.457 -5.4219,-8.1445 -5.4219,-14.062 0,-5.9375 1.8047,-10.629 5.4219,-14.078 3.6133,-3.457 8.5078,-5.1875 14.688,-5.1875 2.0703,0 4.0625,0.23438 5.9688,0.70312 1.9062,0.46094 3.7383,1.1484 5.5,2.0625 v 7.6719 c -1.7812,-1.207 -3.5391,-2.0938 -5.2656,-2.6562 -1.7188,-0.5625 -3.5273,-0.84375 -5.4219,-0.84375 -3.418,0 -6.1055,1.0938 -8.0625,3.2812 -1.9609,2.1875 -2.9375,5.2031 -2.9375,9.0469 0,3.8242 0.97656,6.8281 2.9375,9.0156 1.957,2.1875 4.6445,3.2812 8.0625,3.2812 1.8945,0 3.7031,-0.28125 5.4219,-0.84375 1.7266,-0.5625 3.4844,-1.4453 5.2656,-2.6562 z"
         id="path2404" />
    </symbol>
    <symbol
       id="i-6"
       overflow="visible">
      <path
         d="m 24.953,-20.266 c -0.78125,-0.36328 -1.5586,-0.62891 -2.3281,-0.79688 -0.77344,-0.17578 -1.543,-0.26562 -2.3125,-0.26562 -2.293,0 -4.0586,0.73438 -5.2969,2.2031 -1.2305,1.4688 -1.8438,3.5703 -1.8438,6.2969 V -5e-4 H 4.2811 v -27.844 h 8.8906 v 4.5781 c 1.1445,-1.8203 2.457,-3.1484 3.9375,-3.9844 1.4883,-0.84375 3.2695,-1.2656 5.3438,-1.2656 0.28906,0 0.60938,0.01563 0.95312,0.04687 0.35156,0.02344 0.86328,0.07422 1.5312,0.15625 z"
         id="path2407" />
    </symbol>
    <symbol
       id="c-5"
       overflow="visible">
      <path
         d="m 32.062,-14 v 2.5469 H 11.265 c 0.20703,2.0859 0.95703,3.6523 2.25,4.7031 1.2891,1.043 3.0977,1.5625 5.4219,1.5625 1.875,0 3.7891,-0.27344 5.75,-0.82812 1.9688,-0.5625 3.9883,-1.4062 6.0625,-2.5312 v 6.8594 c -2.1055,0.79297 -4.2109,1.3906 -6.3125,1.7969 -2.1055,0.40625 -4.2109,0.60938 -6.3125,0.60938 -5.043,0 -8.9609,-1.2734 -11.75,-3.8281 -2.793,-2.5625 -4.1875,-6.1562 -4.1875,-10.781 0,-4.5391 1.3672,-8.1133 4.1094,-10.719 2.75,-2.6016 6.5234,-3.9062 11.328,-3.9062 4.375,0 7.875,1.3203 10.5,3.9531 2.625,2.6367 3.9375,6.1562 3.9375,10.562 z m -9.1406,-2.9531 c 0,-1.6875 -0.49609,-3.0469 -1.4844,-4.0781 -0.99219,-1.0391 -2.2773,-1.5625 -3.8594,-1.5625 -1.7305,0 -3.1367,0.48438 -4.2188,1.4531 -1.0742,0.96875 -1.7422,2.3672 -2,4.1875 z"
         id="path2410" />
    </symbol>
    <symbol
       id="b-7"
       overflow="visible">
      <path
         d="m 16.75,-12.531 c -1.8555,0 -3.25,0.32031 -4.1875,0.95312 -0.9375,0.625 -1.4062,1.5547 -1.4062,2.7812 0,1.125 0.375,2.0117 1.125,2.6562 0.75781,0.63672 1.8125,0.95312 3.1562,0.95312 1.6758,0 3.082,-0.59766 4.2188,-1.7969 1.1445,-1.207 1.7188,-2.7188 1.7188,-4.5312 v -1.0156 z m 13.594,-3.3594 V 6e-4 h -8.9688 v -4.125 c -1.1875,1.6875 -2.5312,2.918 -4.0312,3.6875 -1.4922,0.76953 -3.3047,1.1562 -5.4375,1.1562 -2.8867,0 -5.2305,-0.83594 -7.0312,-2.5156 -1.793,-1.6875 -2.6875,-3.875 -2.6875,-6.5625 0,-3.2578 1.1172,-5.6484 3.3594,-7.1719 2.25,-1.5312 5.7734,-2.2969 10.578,-2.2969 h 5.25 v -0.6875 c 0,-1.4062 -0.55859,-2.4375 -1.6719,-3.0938 -1.1055,-0.65625 -2.8359,-0.98438 -5.1875,-0.98438 -1.9062,0 -3.6836,0.19531 -5.3281,0.57812 -1.6367,0.375 -3.1562,0.94531 -4.5625,1.7031 v -6.7812 c 1.9062,-0.46875 3.8164,-0.82031 5.7344,-1.0625 1.9258,-0.23828 3.8477,-0.35938 5.7656,-0.35938 5.0195,0 8.6445,0.99609 10.875,2.9844 2.2266,1.9805 3.3438,5.1953 3.3438,9.6406 z"
         id="path2413" />
    </symbol>
    <symbol
       id="a-6"
       overflow="visible">
      <path
         d="m 14,-35.75 v 7.9062 h 9.1719 v 6.375 H 14 v 11.797 c 0,1.293 0.25391,2.168 0.76562,2.625 0.50781,0.46094 1.5312,0.6875 3.0625,0.6875 h 4.5625 V 1e-4 h -7.625 c -3.5117,0 -6,-0.73438 -7.4688,-2.2031 -1.4688,-1.46872 -2.2031,-3.957 -2.2031,-7.4688 v -11.797 h -4.4219 v -6.375 h 4.4219 V -35.75 Z"
         id="path2416" />
    </symbol>
    <symbol
       id="h-2"
       overflow="visible">
      <path
         d="m 23.219,-23.766 v -14.906 h 8.9531 V 0 H 23.219 v -4.0312 c -1.2305,1.6484 -2.5859,2.8516 -4.0625,3.6094 -1.4688,0.75781 -3.1719,1.1406 -5.1094,1.1406 -3.4297,0 -6.2461,-1.3594 -8.4531,-4.0781 -2.2109,-2.7266 -3.3125,-6.2383 -3.3125,-10.531 0,-4.2891 1.1016,-7.8008 3.3125,-10.531 2.207,-2.7266 5.0234,-4.0938 8.4531,-4.0938 1.9141,0 3.6133,0.38672 5.0938,1.1562 1.4883,0.77344 2.8477,1.9688 4.0781,3.5938 z m -5.875,18.031 c 1.9062,0 3.3594,-0.69531 4.3594,-2.0938 1.0078,-1.3945 1.5156,-3.4141 1.5156,-6.0625 0,-2.6562 -0.50781,-4.6758 -1.5156,-6.0625 -1,-1.3945 -2.4531,-2.0938 -4.3594,-2.0938 -1.8867,0 -3.3281,0.69922 -4.3281,2.0938 -1,1.3867 -1.5,3.4062 -1.5,6.0625 0,2.6484 0.5,4.668 1.5,6.0625 1,1.3984 2.4414,2.0938 4.3281,2.0938 z"
         id="path2419" />
    </symbol>
    <symbol
       id="g-7"
       overflow="visible">
      <path
         d="m 19.094,-5.7344 c 1.9062,0 3.3594,-0.69531 4.3594,-2.0938 1,-1.3945 1.5,-3.4141 1.5,-6.0625 0,-2.6562 -0.5,-4.6758 -1.5,-6.0625 -1,-1.3945 -2.4531,-2.0938 -4.3594,-2.0938 -1.9063,0 -3.3711,0.70312 -4.3906,2.1094 -1.0234,1.3984 -1.5312,3.4141 -1.5312,6.0469 0,2.6367 0.50781,4.6562 1.5312,6.0625 1.0195,1.3984 2.4844,2.0938 4.3906,2.0938 z m -5.9219,-18.031 c 1.2266,-1.625 2.5859,-2.8203 4.0781,-3.5938 1.4883,-0.76953 3.2031,-1.1562 5.1406,-1.1562 3.4375,0 6.2539,1.3672 8.4531,4.0938 2.207,2.7305 3.3125,6.2422 3.3125,10.531 0,4.293 -1.1055,7.8047 -3.3125,10.531 -2.1992,2.7188 -5.0156,4.0781 -8.4531,4.0781 -1.9375,0 -3.6523,-0.38672 -5.1406,-1.1562 -1.4922,-0.76953 -2.8516,-1.9688 -4.0781,-3.5938 V -3e-4 H 4.2815 v -38.672 h 8.8906 z"
         id="path2422" />
    </symbol>
    <symbol
       id="f-0"
       overflow="visible">
      <path
         d="M 0.625,-27.844 H 9.5156 L 17,-8.953 23.3594,-27.844 h 8.9062 L 20.5626,2.64 c -1.1797,3.0938 -2.5547,5.2539 -4.125,6.4844 -1.5625,1.2383 -3.6328,1.8594 -6.2031,1.8594 H 5.0939 V 5.14 h 2.7812 c 1.5078,0 2.6094,-0.24219 3.2969,-0.71875 0.6875,-0.48047 1.2227,-1.3398 1.6094,-2.5781 l 0.25,-0.78125 z"
         id="path2425" />
    </symbol>
    <symbol
       id="e-3"
       overflow="visible">
      <path
         d="m 14.25,-29.875 v 22.641 h 3.4219 c 3.9141,0 6.9062,-0.96875 8.9688,-2.9062 2.0626,-1.93745 3.0938,-4.7539 3.0938,-8.4531 0,-3.6758 -1.0312,-6.4727 -3.0938,-8.3906 -2.0547,-1.9258 -5.043,-2.8906 -8.9688,-2.8906 z m -9.5781,-7.2344 h 10.094 c 5.6328,0 9.832,0.40234 12.594,1.2031 2.7578,0.80469 5.125,2.168 7.0938,4.0938 1.7383,1.668 3.0312,3.5938 3.875,5.7812 0.8438,2.1874 1.2656,4.668 1.2656,7.4375 0,2.8047 -0.42188,5.3047 -1.2656,7.5 -0.84375,2.1875 -2.1367,4.1211 -3.875,5.7969 -1.9922,1.9297 -4.3828,3.293 -7.1719,4.0938 C 24.5006,-0.39841 20.3287,0 14.7658,0 H 4.6718 Z"
         id="path2428" />
    </symbol>
    <symbol
       id="n-99"
       overflow="visible">
      <path
         d="m 4.2812,-27.844 h 8.8906 V 0 H 4.2812 Z m 0,-10.828 h 8.8906 v 7.25 H 4.2812 Z"
         id="path2431" />
    </symbol>
    <symbol
       id="m-9"
       overflow="visible">
      <path
         d="M 32.266,-16.953 V 0 h -8.9531 v -12.969 c 0,-2.4062 -0.05469,-4.0625 -0.15625,-4.9688 -0.10547,-0.91406 -0.29297,-1.5859 -0.5625,-2.0156 -0.34375,-0.58203 -0.82031,-1.0352 -1.4219,-1.3594 -0.59375,-0.32031 -1.2734,-0.48438 -2.0312,-0.48438 -1.8555,0 -3.3125,0.71875 -4.375,2.1562 -1.0625,1.4297 -1.5938,3.4062 -1.5938,5.9375 v 13.703 h -8.8906 v -27.844 h 8.8906 v 4.0781 c 1.3438,-1.625 2.7695,-2.8203 4.2812,-3.5938 1.5078,-0.76953 3.1758,-1.1562 5,-1.1562 3.207,0 5.6445,0.99219 7.3125,2.9688 1.6641,1.9688 2.5,4.8359 2.5,8.5938 z"
         id="path2434" />
    </symbol>
    <symbol
       id="d-1"
       overflow="visible">
      <path
         d="m 17.531,-22.141 c -1.9805,0 -3.4922,0.71094 -4.5312,2.125 -1.0312,1.418 -1.5469,3.4609 -1.5469,6.125 0,2.668 0.51562,4.7109 1.5469,6.125 1.0391,1.418 2.5508,2.125 4.5312,2.125 1.9375,0 3.4141,-0.70703 4.4375,-2.125 1.0312,-1.4141 1.5469,-3.457 1.5469,-6.125 0,-2.6641 -0.51562,-4.707 -1.5469,-6.125 -1.0234,-1.4141 -2.5,-2.125 -4.4375,-2.125 z m 0,-6.375 c 4.7812,0 8.5156,1.2969 11.203,3.8906 2.6953,2.5859 4.0469,6.1641 4.0469,10.734 0,4.5742 -1.3516,8.1523 -4.0469,10.734 -2.6875,2.5859 -6.4219,3.875 -11.203,3.875 -4.8125,0 -8.5742,-1.2891 -11.281,-3.875 -2.7109,-2.582 -4.0625,-6.1602 -4.0625,-10.734 0,-4.5703 1.3516,-8.1484 4.0625,-10.734 2.707,-2.5938 6.4688,-3.8906 11.281,-3.8906 z"
         id="path2437" />
    </symbol>
    <symbol
       id="l-7"
       overflow="visible">
      <path
         d="m 26.031,-26.969 v 6.7656 c -1.9062,-0.80078 -3.75,-1.3984 -5.5312,-1.7969 -1.7734,-0.39453 -3.4453,-0.59375 -5.0156,-0.59375 -1.6875,0 -2.9453,0.21484 -3.7656,0.64062 -0.82422,0.41797 -1.2344,1.0625 -1.2344,1.9375 0,0.71875 0.3125,1.2734 0.9375,1.6562 0.625,0.375 1.7383,0.65234 3.3438,0.82812 l 1.5625,0.23438 c 4.5625,0.57422 7.6289,1.5273 9.2031,2.8594 1.5703,1.3242 2.3594,3.4023 2.3594,6.2344 0,2.9688 -1.0938,5.1992 -3.2812,6.6875 -2.1875,1.4922 -5.4531,2.2344 -9.7969,2.2344 -1.8359,0 -3.7344,-0.14844 -5.7031,-0.4375 -1.9609,-0.28906 -3.9766,-0.72266 -6.0469,-1.2969 v -6.7656 c 1.7695,0.86719 3.5859,1.5156 5.4531,1.9531 1.8633,0.42969 3.7539,0.64062 5.6719,0.64062 1.7383,0 3.0469,-0.23828 3.9219,-0.71875 0.88281,-0.48828 1.3281,-1.2031 1.3281,-2.1406 0,-0.80078 -0.30469,-1.3945 -0.90625,-1.7812 -0.60547,-0.39453 -1.8125,-0.69531 -3.625,-0.90625 l -1.5625,-0.20312 c -3.9609,-0.5 -6.7344,-1.4141 -8.3281,-2.75 -1.5859,-1.3438 -2.375,-3.3828 -2.375,-6.125 0,-2.9453 1.0078,-5.1328 3.0312,-6.5625 2.0195,-1.4258 5.1172,-2.1406 9.2969,-2.1406 1.6328,0 3.3516,0.125 5.1562,0.375 1.8125,0.25 3.7812,0.64062 5.9062,1.1719 z"
         id="path2440" />
    </symbol>
    <symbol
       id="k-2"
       overflow="visible">
      <path
         d="m 22.594,-38.672 v 5.8438 h -4.9219 c -1.2617,0 -2.1406,0.23047 -2.6406,0.6875 -0.49219,0.44922 -0.73438,1.2344 -0.73438,2.3594 v 1.9375 h 7.6094 v 6.375 h -7.6094 V 2e-4 h -8.9062 v -21.469 h -4.4219 v -6.375 h 4.4219 v -1.9375 c 0,-3.0312 0.84375,-5.2695 2.5312,-6.7188 1.6953,-1.4453 4.3164,-2.1719 7.8594,-2.1719 z"
         id="path2443" />
    </symbol>
    <symbol
       id="j-3"
       overflow="visible">
      <path
         d="M 4.6719,-37.109 H 14.25 V -7.234 H 31.047 V 4e-4 H 4.672 Z"
         id="path2446" />
    </symbol>
  </defs>
  <g
     inkscape:label="Layer 1"
     inkscape:groupmode="layer"
     id="layer1"
     transform="translate(-15.475893,-53.858168)">
    <path
       d="m 172.03472,71.986433 c -0.26734,-0.308681 -0.65595,-0.486445 -1.06521,-0.486445 h -41.76536 v -4.338109 c 0,-6.646333 -5.40738,-12.053711 -12.05371,-12.053711 H 28.779604 c -6.646333,0 -12.053711,5.407378 -12.053711,12.053711 v 85.001811 c 0,0.77995 0.631154,1.41111 1.411111,1.41111 H 37.16619 c 0.727604,10.07604 9.139061,18.05799 19.397134,18.05799 10.258072,0 18.669705,-7.9816 19.397133,-18.05799 h 67.916783 c 0.7276,10.07604 9.13906,18.05799 19.39713,18.05799 10.25807,0 18.66829,-7.9816 19.39572,-18.05799 h 16.08984 c 0.77996,0 1.41111,-0.63116 1.41111,-1.41111 V 104.9338 c 0,-0.34038 -0.12264,-0.66834 -0.34588,-0.92467 z M 28.778722,57.930355 h 88.370838 c 5.09058,0 9.23148,4.140906 9.23148,9.231489 v 55.700086 l -106.835218,0.008 V 67.159516 c 0,-5.090584 4.140905,-9.231489 9.231489,-9.231489 z m -9.231489,67.765085 106.835227,-0.008 v 25.06663 H 75.959928 c -0.727604,-10.07604 -9.139061,-18.05658 -19.397134,-18.05658 -10.258072,0 -18.669705,7.98019 -19.397133,18.05658 H 19.547586 Z m 37.016972,43.1165 c -9.179277,0 -16.646877,-7.4676 -16.646877,-16.64688 0,-9.17787 7.4676,-16.64547 16.646877,-16.64547 9.179278,0 16.646878,7.4676 16.646878,16.64547 0,9.17928 -7.4676,16.64688 -16.646878,16.64688 z m 106.708225,0 c -9.17928,0 -16.64688,-7.4676 -16.64688,-16.64688 0,-9.17787 7.4676,-16.64547 16.64688,-16.64547 9.17081,0 16.63277,7.45526 16.64405,16.62325 0,0.008 -0.004,0.0138 -0.004,0.022 0,0.008 0.004,0.0138 0.004,0.022 -0.011,9.16799 -7.47324,16.62466 -16.64405,16.62466 z m 34.0748,-18.05799 H 182.6685 c -0.7276,-10.07604 -9.13765,-18.05658 -19.39572,-18.05658 -10.25807,0 -18.6697,7.98019 -19.39713,18.05658 H 129.20362 V 74.324644 h 41.12331 l 27.02066,31.138286 z"
       id="path632"
       style="fill:#385723;fill-opacity:1;stroke:#385723;stroke-width:2.5;stroke-miterlimit:4;stroke-dasharray:none;stroke-opacity:1" />
    <path
       d="m 163.27172,142.72543 c -5.20347,0 -9.4368,4.23334 -9.4368,9.43681 0,5.20347 4.23333,9.4368 9.4368,9.4368 5.20348,0 9.43681,-4.23333 9.43681,-9.4368 0,-5.20347 -4.23333,-9.43681 -9.43681,-9.43681 z m 0,16.05139 c -3.64772,0 -6.61458,-2.96693 -6.61458,-6.61458 0,-3.64765 2.96693,-6.61458 6.61458,-6.61458 3.64765,0 6.61459,2.96693 6.61459,6.61458 0,3.64765 -2.96694,6.61458 -6.61459,6.61458 z"
       id="path634"
       style="fill:#385723;fill-opacity:1;stroke:#385723;stroke-width:0.352778;stroke-opacity:1" />
    <path
       d="m 56.559972,142.72543 c -5.202061,0 -9.435394,4.23334 -9.435394,9.43681 0,5.20347 4.233333,9.4368 9.435394,9.4368 5.203472,0 9.436806,-4.23333 9.436806,-9.4368 0,-5.20347 -4.233334,-9.43681 -9.436806,-9.43681 z m 0,16.05139 c -3.646311,0 -6.613172,-2.96693 -6.613172,-6.61458 0,-3.64765 2.966932,-6.61458 6.613172,-6.61458 3.647722,0 6.614583,2.96693 6.614583,6.61458 0,3.64765 -2.966931,6.61458 -6.614583,6.61458 z"
       id="path636"
       style="fill:#385723;fill-opacity:1;stroke:#385723;stroke-width:0.352778;stroke-opacity:1" />
    <path
       d="m 166.0375,81.268016 h -28.22222 c -0.77996,0 -1.41111,0.631155 -1.41111,1.411112 v 35.277782 c 0,0.77858 0.62978,1.40973 1.40836,1.41111 l 50.11914,0.10748 h 0.003 c 0.37345,0 0.73173,-0.14883 0.99631,-0.41204 0.26597,-0.26458 0.4148,-0.62424 0.4148,-0.99907 v -11.05323 c 0,-0.34864 -0.12954,-0.68488 -0.36241,-0.94396 L 167.08768,81.735055 c -0.26733,-0.297656 -0.64904,-0.467148 -1.0487,-0.467148 z m 20.4844,35.383614 -47.29692,-0.10198 V 84.091276 h 26.18281 l 21.11305,23.462544 z"
       id="path638"
       style="fill:#385723;fill-opacity:1;stroke:#385723;stroke-width:0.352778;stroke-opacity:1" />
    <path
       d="m 65.044288,82.857759 -0.01481,-3.183796 c -0.0024,-0.6666 0.110417,-1.760907 0.857643,-2.024362 0.09199,-0.03242 0.18792,-0.04888 0.285336,-0.05068 0.498771,-0.0076 1.050663,0.401843 1.065829,0.92399 l 0.200098,6.412835 c 0.01826,0.646549 -0.219186,1.217861 -0.675827,1.674675 l -3.197612,3.197442 v 2.744928 c 0,0.359221 -0.292906,0.651983 -0.651984,0.651983 H 60.29736 c -0.358727,0 -0.651478,-0.29241 -0.651984,-0.651141 l -0.0064,-4.865548 c -10e-4,-0.719425 0.08919,-1.44395 0.65409,-1.953084 0.186769,-0.168339 0.380447,-0.330095 0.57249,-0.49203 0.605225,-0.510104 1.20653,-1.024673 1.745279,-1.60441 0.121441,-0.130657 0.235147,-0.295046 0.377158,-0.400032 0.377984,-0.279084 0.90158,-0.276616 1.244864,0.06615 0.320225,0.319727 0.113706,0.704766 -0.02979,0.848459 l -2.689657,2.688984 c -0.182654,0.182653 0.02435,0.991266 0.507997,0.50766 l 2.466179,-2.466181 c 0.723556,-0.723387 0.560949,-0.946991 0.556695,-2.026005 z M 50.055874,75.1188 v 4.170133 h 4.170132 v 4.170132 h 4.170133 v -4.170132 h 4.170132 V 75.1188 H 58.396139 V 70.949004 H 54.226006 V 75.1188 Z m -2.478018,7.738959 c -0.0041,1.078972 -0.166856,1.302619 0.556527,2.026174 l 2.466348,2.466348 c 0.483606,0.483606 0.690486,-0.325326 0.507996,-0.50766 l -2.689321,-2.689657 c -0.143822,-0.143823 -0.350007,-0.528892 -0.02979,-0.848459 0.343259,-0.343095 0.866868,-0.345235 1.244864,-0.06615 0.142339,0.104986 0.255882,0.269374 0.377487,0.400032 0.538412,0.579737 1.139717,1.094305 1.744941,1.604409 0.1922,0.161924 0.385882,0.323679 0.572491,0.492031 0.564909,0.509134 0.655101,1.233659 0.65409,1.953085 l -0.0064,4.865548 c -4.76e-4,0.358731 -0.293235,0.651141 -0.651983,0.651141 h -2.615938 c -0.359056,0 -0.651984,-0.292905 -0.651984,-0.651983 V 89.807694 L 45.859758,86.610546 C 45.403113,86.1539 45.165817,85.582419 45.183932,84.93587 l 0.200098,-6.412834 c 0.01481,-0.522152 0.566889,-0.931531 1.065492,-0.923991 0.09725,0.0015 0.193682,0.01826 0.285335,0.05068 0.747062,0.263123 0.860129,1.35772 0.857348,2.024363 z"
       fill-rule="evenodd"
       id="path2014"
       style="fill:#385723;fill-opacity:1;stroke:#385723;stroke-width:0.042126;stroke-opacity:1" />
    <path
       d="m 54.892512,113.07769 c 0.3966,0.55329 1.037992,0.88333 1.715097,0.88333 0.677511,0 1.318539,-0.33004 1.715098,-0.88413 3.569032,-4.98329 15.214934,-22.037281 15.214934,-32.24119 0,-9.334931 -7.594681,-16.929615 -16.929616,-16.929615 -9.334934,0 -16.929614,7.594684 -16.929614,16.929615 0,10.204013 11.645277,27.25821 15.214933,32.24222 z m 1.715097,-47.054982 c 8.16832,0 14.813804,6.645167 14.813804,14.813802 0,7.606428 -7.654749,21.00638 -14.808608,31.00973 -7.164042,-10.00397 -14.818999,-23.402783 -14.818999,-31.00973 0,-8.168323 6.645171,-14.812763 14.813803,-14.812763 z"
       id="path2451"
       style="fill:#385723;fill-opacity:1;stroke:#385723;stroke-width:0.10392;stroke-opacity:1" />
    <path
       style="fill:#385723;fill-opacity:1;stroke:#385723;stroke-width:2.5;stroke-linecap:round;stroke-linejoin:miter;stroke-miterlimit:4;stroke-dasharray:none;stroke-opacity:1"
       d="m 63.08372,112.35349 h 41.44186"
       id="path2802" />
  </g>
</svg>
